<svg width="19" height="14" viewBox="0 0 19 14" fill="none" xmlns="http://www.w3.org/2000/svg">
  <path
    d="M17.8442 5.54878H15.6513V3.12439C15.6513 2.74665 15.3609 2.44146 15.0015 2.44146H8.60542L6.22365 0.0469512C6.19334 0.0171324 6.15348 0.000374109 6.11197 0H0.950435C0.591036 0 0.300674 0.305183 0.300674 0.682927V13.3171C0.300674 13.6948 0.591036 14 0.950435 14H15.1233C15.3873 14 15.6269 13.8314 15.7264 13.5732L18.4473 6.4878C18.4777 6.40671 18.494 6.31921 18.494 6.23171C18.494 5.85396 18.2036 5.54878 17.8442 5.54878ZM1.76264 1.53659H5.59013L8.01861 3.97805H14.1893V5.54878H3.83375C3.56978 5.54878 3.33018 5.71738 3.23069 5.97561L1.76264 9.8V1.53659ZM14.6624 12.4634H2.22965L4.32716 7H16.7619L14.6624 12.4634Z"
    fill="#5FB2FF"/>
</svg>
